PathFileType	4	(X/Y/Z)	Run_500 01
DataRate	CameraRate	NumFrames	NumMarkers	Units	OrigDataRate	OrigDataStartFrame	OrigNumFrames
120	120	8	42	mm	120	495	128
Frame#	Time	LASI			RASI			LPSI			RPSI			RTH1			RTH2			RTH3			LTH1			LTH2			LTH3			RTB1			RTB2			LTB1			LTB2			LTB3			RCAL			RTOE			RMT5			LCAL			LTOE			LMT5			LACR			RACR			CLAV			C7			RUA1			RUA2			RUA3			RLEL			LUA1			LUA2			LUA3			LLEL			LMEL			RFAsuperior			RFAradius			RFAulna			LFAsuperior			LFAradius			LFAulna			RMEL			RTB3		
		X1	Y1	Z1	X2	Y2	Z2	X3	Y3	Z3	X4	Y4	Z4	X5	Y5	Z5	X6	Y6	Z6	X7	Y7	Z7	X8	Y8	Z8	X9	Y9	Z9	X10	Y10	Z10	X11	Y11	Z11	X12	Y12	Z12	X13	Y13	Z13	X14	Y14	Z14	X15	Y15	Z15	X16	Y16	Z16	X17	Y17	Z17	X18	Y18	Z18	X19	Y19	Z19	X20	Y20	Z20	X21	Y21	Z21	X22	Y22	Z22	X23	Y23	Z23	X24	Y24	Z24	X25	Y25	Z25	X26	Y26	Z26	X27	Y27	Z27	X28	Y28	Z28	X29	Y29	Z29	X30	Y30	Z30	X31	Y31	Z31	X32	Y32	Z32	X33	Y33	Z33	X34	Y34	Z34	X35	Y35	Z35	X36	Y36	Z36	X37	Y37	Z37	X38	Y38	Z38	X39	Y39	Z39	X40	Y40	Z40	X41	Y41	Z41	X42	Y42	Z42	

495	  4.125000	1118.630690	959.705809	-428.103411	1102.070258	973.733878	-193.123340	949.745782	1006.226284	-379.877876	939.018250	1009.211122	-282.257351	1061.755236	815.547869	-145.278169	1172.497009	692.002991	-175.801957	1140.317234	589.821788	-204.685449	1052.823838	784.748567	-489.447365	1130.690881	686.857003	-479.844920	1067.640998	568.190073	-470.690451	1193.463909	371.181159	-288.445253	1129.273853	326.071721	-231.034861	968.019158	475.171332	-415.699341	907.831847	569.246522	-461.748651	810.372779	595.576687	-397.463220	949.807929	 94.196876	-330.596703	1164.093775	 71.456840	-340.762776	1139.457587	 47.268829	-233.267117	779.259167	756.995475	-378.647030	631.287840	610.380593	-359.360018	623.239378	639.890667	-464.288325	1106.148610	1451.468813	-476.476827	1091.910663	1414.342263	-109.341769	1169.641333	1388.485654	-268.423339	1058.875295	1478.743788	-301.509473	1053.394606	1334.178543	-64.381803	1039.573800	1248.275403	-79.629927	953.504400	1263.886647	-66.474389	903.172445	1165.795222	-45.480797	1062.218258	1391.545801	-533.823517	988.714783	1358.738468	-513.585590	1025.962578	1294.432297	-562.204644	927.780263	1231.924186	-603.408687	893.095217	1235.034471	-539.451829	981.296100	1109.743947	-31.128110	1091.836747	970.546916	-46.498528	1034.922223	931.426969	-59.513524	984.510995	1167.250224	-599.211852	1078.369472	1010.399766	-517.443452	1028.312985	983.882512	-557.233692	890.485785	1163.795399	-110.589951	1116.833152	207.052481	-301.208644	
496	  4.133333	1114.640939	954.758499	-427.386879	1099.388679	968.286792	-191.806824	945.974441	1003.226835	-377.280036	935.610451	1006.632117	-279.777625	1052.313886	810.921476	-146.413448	1160.545151	684.590157	-177.624939	1124.772652	583.733247	-207.908494	1058.055735	782.410091	-489.543976	1144.141881	689.182508	-481.121694	1090.627352	565.738436	-475.134037	1169.601173	364.063484	-292.112438	1103.478973	321.083288	-234.944578	995.867403	473.577254	-418.200464	933.916580	564.812890	-464.824646	836.345744	589.432288	-399.244351	912.634723	 95.922259	-333.352413	1126.410259	 69.823757	-342.545682	1100.978443	 47.424425	-235.044004	797.720543	751.634374	-379.958834	657.131123	597.798796	-360.392295	647.706629	626.642744	-465.344718	1100.280669	1446.877330	-476.774517	1094.980194	1410.004634	-108.550079	1169.201092	1384.810815	-270.264317	1057.382690	1474.816781	-300.566310	1060.904402	1326.533641	-63.819913	1049.130744	1240.516726	-79.815524	963.603434	1253.551882	-61.555761	917.791852	1152.332003	-39.636253	1054.451424	1387.515148	-532.731996	981.444484	1353.230682	-509.815636	1016.501411	1291.313869	-560.721638	916.003079	1229.530352	-599.951941	883.009790	1231.678856	-535.434270	999.424906	1100.836217	-30.529641	1113.982815	967.552439	-51.115908	1058.577565	925.538895	-62.865787	971.066374	1163.378891	-599.206476	1057.943156	997.219427	-527.228451	1003.991152	975.990907	-565.235058	901.915388	1150.211154	-104.276753	1084.575556	203.452964	-305.075287	
497	  4.141667	1110.914991	951.487611	-427.300248	1096.763154	964.491356	-190.625638	942.663116	1001.532417	-375.458231	932.744669	1005.330205	-278.151399	1043.226949	807.567070	-147.828135	1147.241446	677.668745	-179.281196	1107.318746	578.219160	-210.285305	1063.301762	782.403414	-489.947302	1158.257151	694.949581	-481.917954	1114.567985	567.872628	-479.214916	1143.935975	356.910168	-294.154261	1076.322772	316.076673	-237.177924	1025.038443	473.132719	-421.436279	959.753218	561.131206	-467.488742	861.164654	581.921325	-400.477375	875.688805	 97.391224	-334.575722	1088.922791	 69.250150	-343.946097	1063.275961	 47.405646	-236.095190	812.041688	743.674831	-380.964233	682.546864	580.286043	-361.204230	671.130178	608.306570	-466.098104	1094.577011	1443.581232	-476.960755	1098.719720	1407.457882	-108.392166	1168.494524	1382.334281	-272.339857	1056.037092	1472.261941	-299.804461	1068.329115	1322.033185	-63.912859	1059.077259	1235.516470	-80.372825	973.982491	1246.383200	-58.330495	933.112835	1142.145970	-34.754286	1046.619543	1385.364650	-531.580259	974.586185	1349.308909	-505.134592	1006.507206	1290.486216	-559.343349	903.592454	1229.851322	-596.442200	872.756742	1230.422215	-531.217178	1017.681351	1095.498096	-30.599074	1136.863377	968.640175	-56.413920	1083.603225	923.512995	-66.973605	957.763060	1162.980786	-598.716612	1037.956394	989.087300	-536.626878	980.816795	972.334501	-572.000465	914.330363	1139.597971	-99.145150	1051.321405	199.747520	-307.786210	
498	  4.150000	1107.774985	950.155811	-427.817074	1094.377093	962.180114	-189.770248	939.971073	1000.999096	-374.519242	930.651536	1005.028571	-277.449320	1035.236042	805.304790	-149.015456	1133.191111	671.351119	-180.357219	1088.921517	573.361498	-211.630708	1068.557216	784.362859	-490.762469	1172.425940	703.955818	-482.201283	1138.490519	574.569240	-482.927462	1116.712244	350.126544	-294.926272	1047.911169	311.745455	-237.990357	1055.039594	474.167676	-424.294581	984.428775	557.958470	-469.216070	884.618150	573.136515	-401.062076	839.052574	 99.121699	-334.444578	1051.749816	 69.522511	-344.851143	1026.150245	 47.219876	-236.528812	822.565552	732.622599	-381.630148	707.905105	558.525901	-361.676427	694.113948	585.222889	-466.576625	1088.981159	1441.761802	-477.046789	1102.988589	1406.917432	-108.847574	1167.616114	1380.985638	-274.600176	1054.754964	1471.133862	-299.137233	1075.285516	1320.584994	-64.452245	1068.916675	1233.441142	-81.101472	983.961185	1242.290897	-56.483288	948.355990	1135.541428	-30.957551	1038.564615	1385.300284	-530.420429	968.179597	1347.575328	-499.800851	995.907043	1292.097102	-558.087060	890.652100	1233.311616	-592.892271	862.609952	1231.936029	-526.712381	1035.481804	1093.763102	-31.242706	1159.764900	974.050400	-62.477290	1109.133994	925.753360	-71.449464	944.145897	1165.886666	-598.011938	1018.994757	986.290815	-544.930810	959.400066	972.811344	-577.356078	927.185019	1132.274209	-95.334171	1017.549102	196.596509	-308.950839	
499	  4.158333	1105.454452	950.652257	-428.577734	1092.450537	961.035087	-189.154094	938.004341	1001.580317	-374.310633	929.387799	1005.559955	-277.412073	1028.386577	804.272672	-149.664663	1118.903578	665.979869	-180.806250	1070.140781	569.648120	-211.870041	1073.751673	787.993040	-491.785018	1185.985061	715.952420	-482.011964	1161.565738	585.077834	-486.097049	1088.450220	344.529862	-294.652812	1018.599949	308.816975	-237.823812	1085.143422	477.068641	-425.832606	1007.430654	555.023445	-469.797413	907.173460	563.069303	-401.095118	803.023707	101.986193	-333.346276	1015.094173	 70.154352	-345.117655	989.434596	 46.866179	-236.588328	830.104448	718.001704	-382.015985	733.812854	533.294051	-361.787356	717.312166	558.080693	-466.773381	1083.385558	1441.551758	-477.052063	1107.516842	1408.383308	-109.743175	1166.714159	1380.844279	-276.975315	1053.475267	1471.407548	-298.522704	1081.761801	1321.675389	-65.225287	1078.235862	1234.096305	-81.851096	993.198084	1240.879676	-55.479548	962.833640	1132.278205	-28.178023	1030.211385	1387.380208	-529.164098	962.005207	1348.452307	-494.259105	984.749639	1296.156798	-556.906833	877.366886	1239.790670	-589.176484	852.595017	1236.422400	-521.902359	1052.337201	1095.318000	-32.305828	1181.923353	983.662771	-69.350873	1134.348671	932.322546	-76.027706	929.815639	1171.666582	-597.319441	1001.644271	988.494946	-551.501624	940.274308	977.092686	-581.176535	940.119655	1128.131832	-92.752237	983.914177	194.774469	-308.565950	
500	  4.166667	1104.040570	952.654651	-429.173255	1091.121832	960.791709	-188.549650	936.822705	1003.335390	-374.565886	928.848248	1006.923965	-277.646463	1022.260931	804.601545	-149.791156	1104.733737	661.960689	-180.887231	1051.195032	567.643692	-211.123332	1078.769939	793.129967	-492.697965	1198.271255	730.624086	-481.477707	1183.142865	598.493572	-488.509885	1059.720640	340.939103	-293.489228	988.820914	307.837305	-237.058584	1114.540603	481.968641	-426.112149	1028.880990	552.249843	-469.473353	929.684814	551.748379	-400.833813	767.752191	106.876457	-331.642175	978.870377	 70.885936	-344.735068	952.810023	 46.443161	-236.460556	835.850341	699.471796	-382.204455	760.933998	505.406887	-361.632759	741.435354	527.774090	-466.705731	1077.738610	1443.033667	-477.002282	1111.982008	1411.622448	-110.883239	1165.919168	1382.113563	-279.432607	1052.175083	1472.966463	-297.994120	1087.931414	1324.664682	-66.122689	1086.821445	1237.008367	-82.543329	1001.656412	1241.662453	-54.869568	976.100703	1131.784502	-26.206057	1021.693810	1391.507231	-527.638017	955.739160	1352.035010	-488.978475	973.300736	1302.511853	-555.681949	863.963982	1248.752774	-585.083116	842.659831	1243.519843	-516.807029	1067.877077	1099.659248	-33.580637	1202.638421	997.090003	-76.910520	1158.564207	942.910147	-80.660168	914.820324	1179.859787	-596.626302	986.317947	994.937741	-556.172032	923.741095	984.645537	-583.505303	952.760251	1126.832419	-91.081582	950.791742	194.874623	-307.046640	
501	  4.175000	1103.471682	955.854271	-429.335367	1090.407416	961.332886	-187.765914	936.417330	1006.333450	-374.999997	928.887846	1009.210571	-277.804037	1016.404592	806.208808	-149.656211	1090.916424	659.607307	-180.877793	1032.203818	567.698934	-209.717537	1083.552991	799.707709	-493.391823	1208.720961	747.418626	-480.799763	1202.736504	614.117901	-490.095878	1030.938847	339.868214	-291.624003	958.949394	309.150338	-235.854604	1142.600696	488.561366	-426.033984	1049.313521	549.695300	-468.736086	952.734362	539.350094	-400.571891	733.162679	114.535369	-329.497409	942.581340	 71.762820	-343.867422	915.709589	 46.097843	-236.205264	841.209584	676.931237	-382.243108	789.891058	475.707411	-361.380119	767.278853	495.238693	-466.447712	1072.088717	1446.220147	-476.905322	1116.107685	1416.262100	-112.188888	1165.283954	1384.963183	-281.999080	1050.867700	1475.623471	-297.631242	1093.885640	1329.039629	-67.145308	1094.649982	1241.614732	-83.171405	1009.424307	1244.231974	-54.393232	987.973797	1133.462278	-24.783315	1013.324162	1397.474600	-525.709831	949.174963	1358.056430	-484.301925	962.024398	1310.815255	-554.239171	850.754370	1259.515635	-580.453743	832.909446	1252.524997	-511.459419	1081.853339	1106.231074	-34.846690	1221.337753	1013.777969	-84.843846	1181.212254	956.919317	-85.477141	899.796439	1190.060902	-595.642594	973.135252	1004.680150	-559.243787	909.772620	994.782832	-584.575238	964.525676	1127.893402	-89.878576	918.179962	197.250584	-304.893888	
502	  4.183333	1103.603403	960.106318	-428.980307	1090.292728	962.662563	-186.784353	936.689912	1010.550736	-375.330687	929.467290	1012.478166	-277.648227	1010.712649	808.889776	-149.548993	1077.624217	659.046465	-180.916105	1013.375587	569.883494	-208.021336	1088.140153	807.706084	-494.072779	1217.037549	765.475992	-480.202071	1220.005029	631.419356	-490.965324	1002.303624	341.439556	-289.263383	929.255229	312.943905	-234.121707	1169.049716	496.222624	-426.380365	1069.238984	547.328744	-467.989152	976.206077	526.144124	-400.470081	699.151500	125.404045	-326.872658	905.521978	 72.862282	-342.749112	877.453888	 45.912511	-235.811189	847.584892	650.599677	-382.137324	821.272863	445.030999	-361.201198	795.658901	461.369148	-466.106410	1066.550700	1451.016333	-476.720860	1119.748340	1421.940278	-113.710731	1164.775582	1389.385794	-284.721908	1049.586680	1479.191054	-297.494746	1099.531209	1334.505595	-68.335449	1101.778305	1247.457437	-83.770481	1016.561874	1248.320151	-53.927446	998.458511	1136.885417	-23.683559	1005.455748	1405.022729	-523.396404	942.362835	1366.026151	-480.368409	951.447007	1320.551927	-552.423447	838.169333	1271.478794	-575.295051	823.635177	1262.773819	-505.900453	1094.139559	1114.519432	-35.939799	1237.605844	1033.059625	-92.777140	1201.795281	973.640951	-90.675583	885.714085	1201.879403	-593.977028	961.944559	1016.796900	-561.187455	898.059132	1006.770656	-584.677909	974.729272	1130.738826	-88.739337	885.920538	202.037978	-302.357798	
